<?xml version="1.0" standalone="no"?>
<!DOCTYPE svg PUBLIC "-//W3C//DTD SVG 20010904//EN"
 "http://www.w3.org/TR/2001/REC-SVG-20010904/DTD/svg10.dtd">
<svg version="1.0" xmlns="http://www.w3.org/2000/svg"
 width="2378.000000pt" height="1792.000000pt" viewBox="0 0 2378.000000 1792.000000"
 preserveAspectRatio="xMidYMid meet">

<g transform="translate(0.000000,1792.000000) scale(0.100000,-0.100000)"
fill="#000000" stroke="none">
<path d="M17960 15863 c-22 -43 -58 -112 -81 -153 -22 -41 -70 -131 -106 -200
-36 -69 -73 -138 -83 -155 -10 -16 -43 -78 -74 -138 -78 -149 -144 -273 -176
-332 -15 -27 -51 -95 -80 -150 -29 -55 -65 -122 -80 -150 -15 -27 -58 -108
-95 -180 -37 -71 -80 -152 -95 -180 -15 -27 -51 -95 -80 -150 -29 -55 -63
-119 -76 -142 -13 -23 -55 -104 -95 -180 -39 -76 -80 -151 -89 -168 -10 -16
-43 -77 -73 -135 -65 -124 -115 -219 -167 -315 -21 -38 -53 -99 -72 -135 -111
-208 -133 -250 -158 -295 -15 -27 -53 -99 -85 -160 -91 -174 -191 -362 -278
-525 -92 -172 -107 -200 -167 -315 -34 -66 -83 -158 -108 -205 -25 -47 -62
-116 -82 -155 -20 -38 -57 -108 -82 -155 -53 -100 -112 -210 -178 -335 -26
-49 -72 -137 -102 -195 -31 -58 -81 -152 -111 -210 -30 -58 -82 -159 -117
-225 -139 -264 -267 -509 -296 -567 -13 -27 -24 -53 -24 -59 0 -6 -13 -29 -28
-52 -34 -49 -62 -105 -62 -122 0 -7 -9 -20 -20 -30 -11 -10 -20 -14 -20 -9 0
22 32 158 45 192 16 41 53 174 65 237 5 22 20 83 35 135 28 97 36 131 54 210
6 25 18 70 27 100 17 59 29 107 40 155 5 26 23 94 63 245 6 19 22 82 36 140
29 115 35 139 66 250 11 41 25 93 30 115 5 22 13 56 18 75 48 178 64 240 71
270 5 19 16 62 25 95 20 73 31 118 44 170 5 22 21 85 36 140 25 93 32 122 54
215 5 19 16 62 26 95 16 58 26 95 44 173 4 20 21 82 36 137 15 55 31 116 35
135 5 19 16 62 25 95 9 33 21 77 26 98 18 74 28 113 44 172 9 33 19 71 22 85
6 30 46 183 69 265 9 33 20 78 24 100 5 22 16 67 25 100 20 73 31 117 44 170
5 22 17 67 26 100 10 33 21 77 26 98 21 86 28 115 44 172 10 33 21 76 26 95 4
19 13 53 18 75 6 22 14 58 19 80 5 22 17 67 27 100 9 33 21 78 25 100 4 22 18
78 30 125 11 47 26 103 31 125 6 22 14 54 19 70 5 17 12 53 16 80 6 48 5 52
-20 63 -15 7 -34 12 -43 12 -9 0 -30 4 -47 10 -47 14 -298 71 -301 68 -5 -7
-39 -125 -64 -225 -30 -119 -64 -252 -72 -278 -4 -16 -20 -77 -34 -135 -15
-58 -30 -116 -35 -130 -5 -14 -20 -72 -35 -130 -14 -58 -31 -123 -36 -145 -6
-22 -14 -53 -19 -70 -8 -27 -15 -57 -50 -195 -5 -19 -19 -71 -30 -115 -12 -44
-26 -96 -30 -115 -5 -19 -20 -80 -35 -135 -14 -55 -30 -116 -35 -135 -4 -19
-16 -62 -25 -95 -9 -33 -34 -127 -55 -210 -21 -82 -46 -177 -55 -210 -9 -33
-21 -76 -25 -95 -5 -19 -20 -80 -35 -135 -29 -109 -39 -149 -53 -210 -13 -52
-34 -136 -67 -260 -51 -190 -67 -250 -75 -285 -5 -19 -16 -62 -25 -95 -16 -58
-23 -87 -44 -170 -5 -22 -17 -67 -26 -100 -20 -73 -31 -116 -44 -175 -6 -25
-18 -70 -27 -100 -8 -30 -20 -73 -25 -95 -14 -56 -25 -99 -44 -175 -10 -36
-21 -81 -25 -100 -5 -19 -13 -51 -19 -70 -21 -75 -52 -191 -70 -265 -5 -22
-17 -67 -26 -100 -9 -33 -20 -78 -25 -100 -16 -70 -28 -118 -45 -180 -24 -85
-35 -125 -45 -165 -5 -19 -20 -80 -35 -135 -32 -119 -41 -154 -54 -218 -6 -27
-13 -53 -17 -58 -6 -11 -39 -135 -54 -204 -5 -22 -13 -53 -19 -68 -6 -16 -11
-40 -11 -55 0 -28 -14 -70 -42 -132 l-16 -35 -1 85 c-1 47 -4 405 -7 795 -3
391 -8 717 -11 725 -3 8 -9 508 -14 1110 -13 1683 -27 2859 -33 2869 -7 11 -3
9 -232 125 -95 47 -174 86 -178 86 -3 0 -29 11 -58 24 -29 13 -78 34 -108 46
-30 12 -68 28 -85 35 -16 6 -46 18 -65 25 -19 6 -44 16 -55 20 -51 22 -264 94
-385 130 -41 13 -102 31 -135 42 -65 20 -318 83 -399 99 -138 27 -315 57 -436
73 -321 42 -533 56 -860 56 -429 0 -726 -28 -1180 -109 -79 -15 -254 -52 -285
-61 -16 -5 -48 -13 -70 -19 -237 -58 -603 -179 -810 -266 -16 -7 -86 -36 -154
-65 -198 -82 -540 -258 -761 -390 -631 -378 -1255 -913 -1712 -1470 -100 -121
-240 -305 -272 -355 -11 -16 -28 -38 -38 -49 -10 -11 -18 -23 -18 -27 0 -4 -6
-14 -13 -21 -18 -18 -247 -374 -247 -383 0 -3 -12 -24 -26 -46 -101 -160 -326
-608 -404 -804 -8 -21 -35 -86 -50 -120 -32 -75 -142 -380 -160 -445 -7 -25
-23 -76 -35 -115 -29 -90 -45 -151 -80 -295 -9 -36 -20 -81 -25 -100 -17 -68
-29 -126 -45 -210 -9 -47 -20 -105 -25 -130 -63 -324 -112 -950 -96 -1241 24
-443 32 -555 55 -714 28 -194 33 -222 42 -251 5 -17 9 -41 9 -55 0 -26 25
-153 41 -205 5 -17 9 -40 9 -52 0 -11 4 -31 9 -44 5 -13 16 -57 26 -98 9 -41
20 -86 25 -100 4 -14 13 -45 20 -70 29 -109 112 -368 140 -435 4 -11 14 -36
20 -55 7 -19 20 -51 28 -70 8 -19 18 -44 22 -55 89 -227 204 -481 273 -598
l22 -38 -50 -47 c-199 -186 -253 -236 -350 -331 -61 -58 -207 -198 -325 -311
-198 -189 -332 -318 -611 -588 -58 -57 -112 -114 -120 -128 -12 -24 -9 -29
126 -164 77 -77 147 -140 155 -140 8 0 51 35 95 77 44 42 121 115 170 162 50
47 207 198 350 335 143 138 305 295 360 348 55 53 111 106 125 118 14 12 90
85 170 163 183 179 627 607 785 758 66 62 206 197 310 300 105 102 213 206
240 233 281 267 769 769 1015 1045 41 46 80 89 85 95 19 20 160 182 215 246
30 35 87 100 125 145 39 44 93 107 120 140 27 33 52 62 55 65 3 3 16 19 29 35
12 17 39 48 60 70 20 22 81 94 134 160 53 66 105 129 116 141 10 11 32 39 47
60 16 22 46 57 66 79 21 22 53 58 73 79 19 22 38 36 41 33 4 -4 2 -12 -3 -19
-6 -7 -18 -35 -28 -63 -10 -27 -26 -59 -36 -70 -9 -11 -39 -65 -66 -120 -28
-55 -60 -120 -73 -145 -39 -75 -73 -144 -81 -160 -31 -68 -285 -568 -477 -940
-52 -102 -136 -266 -187 -365 -135 -263 -250 -484 -390 -750 -26 -49 -71 -135
-100 -190 -29 -55 -70 -134 -92 -175 -22 -41 -69 -131 -105 -200 -36 -69 -85
-161 -108 -205 -77 -143 -101 -188 -167 -315 -63 -119 -114 -216 -191 -360
-19 -36 -57 -108 -85 -160 -27 -52 -65 -124 -85 -160 -40 -74 -95 -179 -175
-330 -30 -58 -68 -130 -84 -160 -17 -30 -49 -91 -73 -135 -23 -44 -62 -116
-85 -160 -24 -44 -70 -132 -103 -195 -32 -63 -70 -135 -84 -160 -14 -25 -44
-81 -68 -125 -24 -44 -55 -102 -70 -130 -15 -27 -52 -97 -83 -155 -30 -58 -68
-130 -84 -160 -17 -30 -51 -95 -78 -145 -26 -49 -60 -112 -75 -140 -15 -27
-55 -104 -90 -170 -103 -196 -146 -278 -171 -320 -63 -109 -88 -170 -76 -182
7 -7 62 -37 122 -69 61 -31 141 -74 178 -96 37 -22 75 -38 83 -36 16 3 36 35
109 173 61 117 134 254 163 305 13 25 54 101 90 170 35 69 85 163 110 210 24
47 76 146 115 220 38 74 73 140 78 145 4 6 37 67 72 135 35 69 83 161 107 205
58 107 95 177 170 320 65 123 129 244 185 350 18 33 60 114 95 180 75 144 144
275 195 370 38 71 101 191 237 455 42 80 92 177 113 215 31 59 82 154 146 276
6 13 16 32 20 41 5 9 27 52 50 95 23 43 72 137 109 208 37 72 98 189 135 260
37 72 104 200 148 285 44 85 98 189 120 230 22 41 101 194 175 340 74 146 189
371 255 500 133 262 294 584 306 615 18 44 117 240 127 251 17 19 5 -81 -18
-146 -33 -94 -46 -144 -67 -257 -5 -29 -12 -57 -15 -61 -5 -8 -42 -143 -56
-202 -4 -19 -24 -96 -43 -170 -115 -441 -150 -576 -163 -635 -3 -16 -20 -82
-37 -145 -16 -63 -33 -131 -37 -150 -7 -32 -20 -79 -65 -245 -10 -33 -20 -76
-24 -95 -9 -38 -46 -186 -60 -235 -8 -26 -26 -96 -71 -275 -5 -19 -19 -71 -30
-115 -23 -83 -33 -123 -49 -190 -5 -22 -32 -130 -61 -240 -51 -196 -59 -229
-79 -310 -5 -22 -17 -67 -26 -100 -10 -33 -22 -78 -27 -100 -17 -73 -26 -109
-43 -170 -18 -62 -27 -96 -44 -175 -6 -25 -18 -72 -27 -105 -31 -113 -35 -130
-44 -165 -5 -19 -14 -57 -19 -83 -6 -27 -13 -52 -16 -57 -3 -5 -9 -28 -15 -52
-5 -24 -14 -61 -20 -83 -6 -22 -15 -56 -20 -75 -5 -19 -16 -62 -25 -95 -9 -33
-21 -77 -26 -97 -18 -75 -28 -114 -44 -173 -9 -33 -21 -77 -26 -97 -18 -75
-28 -114 -44 -173 -9 -33 -20 -76 -25 -95 -4 -19 -22 -88 -39 -154 -40 -151
-40 -159 2 -174 18 -7 41 -12 50 -12 21 0 212 -45 281 -65 51 -16 76 -9 76 22
0 8 7 38 16 66 8 29 19 69 25 90 5 20 13 54 19 75 9 37 43 174 60 242 5 19 20
80 35 135 14 55 31 118 36 140 5 22 14 56 18 75 34 138 80 316 102 395 6 22
15 57 20 78 5 20 13 54 19 75 5 20 13 55 18 77 5 22 17 67 26 100 9 33 21 78
25 100 5 22 17 67 26 100 27 97 56 207 66 253 5 24 11 47 14 52 3 5 10 30 16
57 13 61 21 94 54 218 27 99 37 140 54 213 10 44 93 361 116 447 10 33 19 71
22 85 3 14 15 63 28 110 13 47 26 99 29 115 9 40 21 87 41 160 15 55 21 79 45
175 4 19 20 80 35 135 15 55 30 116 35 135 20 90 53 217 60 235 4 11 15 52 24
90 9 39 24 95 32 125 9 30 20 73 25 95 22 92 29 119 79 310 29 110 56 217 61
238 5 20 13 54 18 75 5 20 18 75 30 122 12 47 26 101 31 120 19 75 42 156 51
178 5 13 9 32 9 43 0 10 4 27 9 37 9 18 48 168 62 237 4 22 13 58 19 80 6 22
18 69 25 105 13 62 38 148 53 180 11 23 17 -258 20 -880 1 -311 7 -785 12
-1055 5 -269 10 -908 10 -1420 1 -1275 14 -2234 32 -2251 15 -14 279 -148 433
-219 239 -111 699 -283 925 -345 25 -7 56 -16 70 -21 25 -8 162 -41 320 -78
77 -17 168 -35 320 -61 53 -9 231 -30 430 -50 161 -16 429 -30 565 -30 316 0
799 45 1090 101 28 5 100 19 160 30 149 29 145 28 270 60 169 43 224 58 295
80 36 12 79 25 95 29 93 24 496 174 623 231 24 11 62 27 85 36 94 36 523 259
677 351 268 160 525 338 800 556 63 50 117 93 120 96 3 3 54 48 115 100 114
98 357 336 461 451 32 36 77 85 99 110 49 53 218 258 260 314 16 22 35 47 42
55 52 64 284 399 311 450 7 14 20 32 28 41 8 8 14 19 14 22 0 4 19 37 43 74
23 38 54 91 69 118 15 28 45 84 67 125 41 75 109 212 161 325 15 33 41 89 58
125 17 36 38 85 47 110 9 25 21 54 26 65 43 98 164 454 210 620 6 22 17 60 24
85 29 104 49 182 79 310 24 102 28 119 45 225 5 28 16 95 26 150 25 150 38
261 66 555 16 158 15 776 -1 930 -6 63 -15 156 -20 205 -14 141 -44 359 -61
445 -5 30 -15 80 -21 110 -17 91 -45 218 -73 330 -9 36 -21 83 -25 106 -5 22
-13 51 -18 65 -6 13 -15 44 -22 69 -17 64 -152 483 -160 495 -3 6 -12 28 -19
50 -7 22 -19 54 -26 70 -7 17 -36 89 -65 160 -60 148 -71 174 -151 344 -33 68
-59 127 -59 131 0 4 57 61 128 126 70 65 165 155 212 200 47 44 123 116 170
160 46 43 130 122 185 174 94 90 232 221 280 265 12 11 64 61 116 110 52 50
163 155 247 234 84 79 152 147 152 150 0 3 -65 73 -144 156 -135 142 -145 149
-169 140 -14 -6 -70 -52 -124 -104 -54 -52 -129 -124 -168 -160 -124 -117
-457 -432 -545 -515 -47 -45 -117 -110 -155 -145 -39 -36 -117 -110 -175 -165
-58 -56 -170 -162 -250 -236 -80 -74 -176 -165 -215 -202 -38 -36 -80 -75 -91
-85 -12 -10 -100 -92 -195 -183 -96 -91 -212 -202 -259 -245 -308 -288 -687
-651 -905 -870 -247 -247 -265 -267 -693 -755 -114 -129 -212 -239 -218 -245
-6 -5 -33 -37 -60 -70 -27 -33 -65 -78 -85 -100 -20 -22 -83 -94 -140 -160
-57 -66 -105 -122 -108 -125 -4 -3 -21 -23 -40 -45 -19 -22 -57 -67 -86 -100
-126 -143 -165 -190 -165 -198 0 -4 -20 -29 -45 -55 -24 -26 -65 -69 -89 -97
-25 -27 -48 -46 -52 -43 -6 7 50 125 113 238 17 30 64 120 105 200 42 80 92
177 113 215 21 39 71 135 113 215 41 80 94 181 117 225 133 251 230 435 317
605 39 74 83 158 98 185 45 82 109 202 180 340 76 147 153 294 197 375 34 62
101 187 146 270 16 30 55 105 87 165 53 103 98 188 182 345 19 36 56 106 83
155 26 50 60 113 75 140 15 28 49 91 75 140 27 50 61 115 78 145 16 30 55 105
87 165 66 128 141 269 180 340 15 28 51 95 80 150 29 55 65 123 80 150 30 54
102 190 180 340 82 157 145 276 185 350 127 235 177 328 243 455 36 69 83 159
105 200 122 227 196 368 265 500 67 129 116 222 160 300 14 25 45 82 68 127
l42 83 -26 18 c-67 46 -341 192 -360 192 -17 0 -31 -17 -62 -77z m-6665 -943
c183 -20 462 -56 530 -70 28 -6 118 -23 200 -40 143 -28 178 -36 340 -80 61
-16 263 -77 335 -100 69 -22 338 -125 397 -151 23 -10 44 -19 47 -19 3 0 41
-16 83 -36 43 -20 103 -47 133 -61 90 -41 90 -42 90 -159 0 -57 -4 -105 -9
-109 -5 -3 -25 1 -43 9 -169 73 -230 96 -378 146 -332 111 -536 164 -885 230
-161 30 -397 54 -702 71 -222 13 -433 6 -763 -26 -595 -58 -1186 -217 -1759
-472 -118 -53 -397 -192 -486 -243 -22 -13 -59 -34 -82 -47 -148 -83 -419
-261 -563 -371 -305 -232 -637 -538 -860 -792 -41 -47 -77 -87 -80 -90 -3 -3
-50 -61 -105 -130 -55 -69 -103 -127 -106 -130 -27 -23 -359 -518 -359 -534 0
-3 -16 -30 -35 -60 -19 -30 -35 -57 -35 -60 0 -2 -19 -37 -43 -78 -56 -95
-173 -333 -242 -493 -7 -16 -24 -56 -39 -88 -14 -32 -26 -62 -26 -67 0 -6 -4
-18 -9 -28 -6 -9 -22 -51 -36 -92 -15 -41 -30 -84 -35 -95 -5 -11 -13 -36 -19
-55 -6 -19 -22 -69 -35 -110 -13 -41 -28 -93 -35 -115 -6 -22 -18 -65 -26 -95
-19 -64 -29 -105 -45 -175 -6 -27 -17 -75 -24 -105 -18 -73 -35 -163 -66 -335
-50 -285 -74 -679 -66 -1060 6 -283 9 -317 61 -685 23 -170 74 -422 96 -478 5
-13 9 -34 9 -47 0 -13 4 -34 9 -47 5 -13 17 -50 26 -83 9 -33 20 -69 25 -80 4
-11 24 -72 44 -135 36 -111 94 -273 121 -335 7 -16 23 -55 34 -84 20 -52 20
-56 3 -75 -9 -12 -20 -24 -24 -27 -5 -3 -91 -87 -192 -187 -101 -100 -188
-182 -194 -182 -14 0 -49 46 -57 73 -7 25 -16 44 -79 180 -25 54 -46 100 -46
102 0 3 -8 24 -19 48 -10 23 -24 58 -31 77 -7 19 -19 49 -26 65 -16 38 -71
195 -91 260 -9 28 -26 82 -38 120 -22 69 -36 118 -55 193 -5 20 -16 62 -24 92
-8 30 -18 71 -21 90 -4 19 -11 51 -15 70 -67 294 -103 573 -120 905 -5 116
-12 228 -15 250 -8 66 15 516 37 720 30 278 37 332 73 510 9 44 20 100 25 125
20 101 29 140 55 235 15 55 30 116 34 135 5 19 17 62 28 95 11 33 33 101 48
150 15 50 32 94 36 100 5 5 9 17 9 27 0 10 4 26 9 36 5 9 26 62 46 117 20 55
43 114 50 130 8 17 29 66 47 110 63 149 73 169 169 360 103 204 162 315 188
355 9 14 21 34 28 45 100 171 217 348 319 485 43 58 80 107 84 110 3 3 18 23
35 45 16 22 32 42 35 45 3 3 24 27 45 55 22 27 52 63 67 80 35 40 62 71 128
149 81 95 409 418 530 522 319 273 638 501 955 682 33 19 76 43 95 54 19 12
107 57 195 102 343 175 671 307 1035 416 41 12 86 26 100 31 77 27 297 77 615
138 99 20 385 55 560 70 148 12 665 13 780 1z m385 -826 c196 -16 308 -30 495
-65 77 -14 294 -65 365 -86 199 -58 423 -132 530 -175 108 -43 110 -44 161
-67 26 -11 57 -23 70 -27 13 -3 51 -20 84 -38 l60 -31 3 -92 c3 -99 -2 -108
-46 -83 -29 17 -260 97 -387 134 -133 39 -367 96 -455 111 -19 3 -73 13 -120
21 -338 62 -751 90 -1075 74 -292 -15 -451 -32 -745 -84 -338 -59 -783 -195
-1080 -328 -272 -123 -398 -186 -595 -300 -228 -131 -521 -338 -725 -513 -103
-87 -341 -320 -450 -440 -63 -68 -181 -211 -225 -270 -16 -22 -32 -42 -35 -45
-26 -23 -254 -364 -310 -466 -19 -32 -42 -75 -53 -94 -71 -122 -207 -406 -267
-555 -18 -44 -36 -89 -40 -100 -14 -33 -58 -157 -69 -195 -6 -19 -22 -69 -35
-110 -13 -41 -29 -95 -36 -120 -7 -25 -16 -56 -21 -70 -13 -39 -31 -110 -41
-160 -5 -25 -13 -65 -18 -90 -32 -163 -42 -213 -51 -275 -56 -363 -72 -783
-43 -1140 21 -269 36 -382 69 -540 10 -44 21 -100 25 -125 5 -25 13 -63 19
-85 5 -22 15 -60 21 -85 6 -25 20 -70 30 -101 36 -101 36 -102 -111 -246 -250
-246 -312 -304 -323 -300 -6 2 -18 24 -27 50 -8 26 -19 50 -22 54 -4 3 -7 16
-7 28 0 11 -4 25 -8 31 -4 5 -16 36 -26 69 -10 33 -27 85 -36 115 -10 30 -30
102 -44 160 -15 58 -31 121 -36 140 -18 68 -38 166 -49 240 -7 41 -16 98 -21
125 -5 28 -16 113 -25 190 -9 77 -21 181 -27 230 -15 130 -5 766 15 925 39
306 48 366 82 525 38 180 40 190 80 330 9 33 21 76 25 95 7 29 33 116 70 230
10 33 49 140 60 165 4 11 31 79 60 150 63 158 228 496 308 631 64 109 212 342
247 389 80 110 170 231 175 235 3 3 18 23 35 45 16 22 34 45 40 51 5 7 19 22
29 35 353 436 929 929 1403 1200 642 368 1208 573 1873 678 237 37 342 47 665
65 101 6 400 -5 585 -20z m-228 -781 c13 -17 33 -49 85 -143 11 -19 32 -57 48
-85 15 -27 38 -68 50 -90 12 -22 34 -62 50 -90 15 -27 33 -59 39 -70 6 -11 13
-22 16 -25 6 -6 18 -28 71 -127 23 -43 45 -82 49 -88 5 -5 23 -37 41 -70 62
-115 78 -143 103 -184 14 -22 26 -43 26 -46 0 -3 10 -22 23 -43 13 -20 40 -68
61 -105 44 -80 54 -99 136 -242 103 -182 133 -234 175 -310 12 -22 36 -65 54
-95 18 -30 35 -63 38 -72 3 -10 9 -18 14 -18 5 0 9 -5 9 -10 0 -6 16 -36 36
-67 19 -30 33 -58 30 -60 -6 -7 -99 31 -136 55 -14 9 -59 33 -100 55 -41 21
-124 65 -185 97 -60 32 -148 78 -195 102 -47 25 -148 78 -225 118 -77 40 -201
106 -275 145 -74 40 -193 102 -265 140 -152 79 -308 161 -420 220 -44 23 -129
68 -190 100 -60 32 -137 72 -170 90 -33 18 -123 65 -200 105 -77 40 -162 85
-190 100 -27 15 -144 76 -260 135 -212 109 -235 122 -235 134 0 3 22 16 48 28
26 11 82 37 125 57 44 20 81 36 84 36 3 0 19 6 36 14 18 8 82 31 142 51 61 20
119 40 130 45 19 8 92 31 145 45 14 3 39 10 55 15 74 21 185 48 240 60 33 7
74 16 90 20 17 5 75 16 130 25 292 47 405 60 571 63 66 2 84 -1 96 -15z m667
-3 c31 -5 88 -14 126 -20 175 -28 237 -41 435 -90 205 -51 673 -216 751 -265
14 -9 17 -88 28 -700 16 -933 15 -1548 -1 -1543 -7 2 -24 26 -38 54 -14 27
-36 67 -49 89 -24 41 -38 66 -83 145 -14 25 -34 61 -45 80 -11 19 -31 56 -46
82 -14 25 -36 63 -49 85 -13 21 -32 54 -42 73 -9 19 -25 49 -35 65 -18 30 -34
57 -83 145 -14 25 -57 101 -97 169 -39 68 -71 125 -71 126 0 2 -19 36 -43 77
-24 40 -55 93 -69 118 -14 25 -34 61 -45 80 -11 19 -35 62 -53 95 -18 33 -41
74 -50 90 -10 17 -34 59 -54 93 -20 35 -36 66 -36 69 0 3 -8 17 -19 31 -10 15
-38 63 -61 107 -23 44 -46 85 -50 90 -4 6 -20 33 -36 60 -15 28 -35 64 -44 80
-10 17 -34 59 -54 93 -20 35 -36 65 -36 67 0 2 -27 49 -60 105 -33 56 -60 103
-60 106 0 2 -15 27 -33 56 -38 60 -48 83 -40 92 9 9 80 7 142 -4z m-3014 -700
c3 -5 12 -10 19 -10 8 0 60 -26 117 -58 57 -32 156 -84 219 -116 63 -32 138
-71 165 -86 28 -15 113 -60 190 -100 179 -93 317 -165 380 -200 28 -15 118
-62 200 -105 83 -43 173 -90 200 -105 28 -15 109 -58 180 -95 72 -37 157 -82
190 -100 33 -18 95 -51 139 -74 128 -69 134 -74 94 -84 -27 -6 -227 -49 -383
-82 -60 -13 -153 -33 -205 -45 -52 -11 -147 -32 -210 -45 -171 -37 -297 -64
-370 -81 -36 -8 -105 -23 -155 -34 -49 -11 -121 -27 -160 -35 -38 -8 -90 -20
-115 -25 -55 -11 -282 -60 -330 -70 -77 -17 -278 -61 -320 -70 -25 -5 -99 -21
-165 -36 -66 -14 -138 -29 -160 -34 -22 -4 -83 -17 -135 -29 -218 -50 -227
-52 -390 -86 -69 -14 -143 -30 -165 -35 -22 -5 -74 -16 -115 -25 -88 -19 -132
-29 -220 -49 -145 -34 -214 -46 -221 -39 -7 7 128 288 191 398 68 119 332 511
360 535 3 3 25 30 48 60 140 178 369 414 557 575 165 141 515 394 547 395 9 0
20 -4 23 -10z m8902 -1177 c7 -16 22 -50 33 -78 25 -59 40 -93 69 -158 12 -26
29 -67 37 -90 9 -23 27 -66 40 -95 13 -29 24 -59 24 -67 0 -7 4 -16 9 -19 5
-3 11 -18 14 -33 2 -16 23 -80 44 -143 22 -63 48 -142 58 -175 10 -33 21 -71
25 -85 4 -14 13 -45 20 -70 7 -25 18 -65 25 -90 8 -25 19 -70 25 -100 7 -30
16 -71 21 -90 53 -213 82 -371 118 -655 26 -201 31 -266 40 -500 14 -336 -5
-708 -54 -1050 -32 -229 -47 -315 -70 -410 -16 -65 -21 -88 -44 -197 -12 -56
-36 -143 -55 -198 -9 -25 -16 -53 -16 -63 0 -9 -4 -25 -9 -35 -5 -9 -16 -44
-26 -77 -9 -33 -21 -68 -26 -77 -5 -10 -9 -25 -9 -33 0 -8 -4 -23 -9 -33 -6
-9 -22 -51 -36 -92 -15 -41 -30 -84 -35 -95 -5 -11 -27 -67 -50 -125 -24 -58
-51 -125 -62 -150 -11 -25 -27 -61 -36 -80 -56 -130 -224 -457 -263 -512 -11
-14 -19 -29 -19 -32 0 -7 -185 -300 -228 -361 -105 -147 -291 -391 -333 -435
-8 -9 -43 -49 -79 -90 -100 -117 -413 -431 -540 -543 -63 -56 -117 -104 -120
-107 -29 -29 -157 -131 -297 -236 -321 -241 -740 -492 -1088 -651 -39 -18
-104 -47 -145 -66 -209 -96 -576 -227 -860 -307 -46 -13 -309 -75 -380 -90
-582 -120 -1316 -144 -1887 -60 -37 5 -86 12 -108 15 -46 7 -83 13 -290 54
-371 74 -909 255 -1289 435 -65 31 -120 56 -123 56 -3 0 -18 9 -34 21 -28 19
-29 24 -29 94 0 41 4 76 8 79 5 3 46 -11 93 -30 46 -19 111 -44 144 -55 33
-11 69 -24 80 -29 35 -15 206 -70 300 -97 50 -13 104 -29 120 -33 51 -15 158
-41 210 -52 28 -5 68 -14 90 -19 174 -41 381 -72 655 -99 377 -37 1046 -26
1340 21 150 24 190 31 295 50 169 32 298 63 515 122 85 24 374 121 480 162
571 220 1102 524 1564 894 65 53 134 108 153 123 166 129 563 535 728 743 22
28 42 52 45 55 3 3 18 23 35 45 16 22 32 42 35 45 3 3 28 37 55 75 52 74 62
87 83 110 6 7 12 18 12 24 0 6 5 11 10 11 6 0 10 4 10 8 0 4 35 62 78 127 44
66 91 143 106 170 16 28 32 55 36 60 25 33 206 386 249 485 12 30 32 74 42 98
11 23 38 89 60 145 22 56 44 111 49 122 13 30 71 196 80 230 4 17 14 50 23 75
14 42 36 119 58 200 5 19 18 69 30 110 11 41 25 100 30 130 6 30 14 73 19 95
56 278 60 307 95 675 31 325 22 738 -25 1160 -11 97 -44 298 -64 385 -2 11
-10 47 -16 80 -15 76 -59 262 -70 295 -4 14 -20 70 -35 125 -15 55 -31 109
-35 120 -4 11 -31 91 -59 177 -28 86 -71 205 -96 264 l-44 107 32 31 c322 308
407 386 421 386 6 0 16 -12 23 -27z m-6023 -332 c72 -37 212 -110 311 -161
428 -220 494 -257 600 -341 210 -165 414 -460 504 -729 48 -145 59 -192 80
-335 16 -109 34 -2001 20 -2078 -19 -108 -48 -204 -79 -270 -11 -22 -20 -44
-20 -48 0 -12 -54 -99 -61 -99 -3 0 -26 25 -50 56 -38 49 -72 91 -122 154 -7
8 -84 107 -172 220 -87 113 -161 207 -165 210 -3 3 -18 23 -35 45 -16 22 -32
42 -35 45 -3 3 -23 30 -45 60 -22 30 -42 57 -45 60 -3 3 -19 23 -35 45 -17 22
-32 42 -35 45 -4 3 -19 23 -36 45 -16 22 -34 46 -41 55 -7 8 -150 193 -318
410 -168 217 -313 403 -322 414 -8 10 -45 58 -82 106 -36 47 -86 113 -112 146
-25 32 -74 97 -110 144 -54 71 -154 199 -202 260 -7 8 -26 33 -42 55 -17 22
-34 45 -40 52 -5 6 -34 42 -62 80 -29 37 -105 136 -169 218 -64 83 -142 183
-173 224 -63 82 -86 112 -151 196 -53 69 -72 93 -168 219 -40 52 -99 128 -132
168 -43 53 -56 75 -49 85 6 6 45 19 87 28 42 8 115 24 162 35 47 11 132 29
190 41 58 12 121 25 140 29 19 4 94 20 165 35 146 31 180 38 280 60 39 9 115
25 170 36 55 12 127 27 160 34 33 7 71 13 84 14 13 0 83 -30 155 -68z m5196
-424 c0 -1 21 -61 46 -132 25 -72 50 -145 55 -162 13 -49 25 -91 44 -158 10
-33 21 -76 26 -95 4 -19 13 -53 18 -75 6 -22 13 -53 16 -70 10 -51 36 -168 46
-206 5 -20 9 -49 9 -64 0 -15 4 -44 9 -64 63 -244 95 -891 63 -1271 -18 -210
-28 -304 -41 -375 -6 -33 -16 -87 -22 -120 -18 -107 -31 -168 -51 -250 -27
-110 -35 -143 -47 -195 -6 -25 -18 -70 -26 -100 -9 -30 -19 -64 -22 -75 -2
-11 -8 -29 -13 -40 -5 -11 -11 -29 -13 -40 -8 -29 -75 -221 -99 -280 -11 -27
-24 -59 -28 -70 -70 -176 -228 -493 -333 -670 -23 -38 -44 -75 -47 -80 -30
-61 -297 -440 -384 -546 -11 -14 -34 -43 -51 -65 -16 -21 -82 -97 -147 -169
-448 -500 -1000 -920 -1613 -1228 -105 -53 -263 -127 -269 -127 -3 0 -33 -13
-68 -29 -160 -72 -371 -146 -638 -221 -98 -28 -339 -82 -445 -101 -324 -56
-488 -71 -860 -76 -334 -5 -591 7 -795 38 -171 25 -212 32 -310 50 -106 20
-414 92 -460 109 -14 5 -72 23 -130 40 -96 30 -236 79 -285 100 -11 5 -69 29
-130 53 -60 25 -136 57 -167 72 l-58 27 0 94 c0 51 3 95 8 97 4 3 18 0 32 -6
34 -14 104 -41 170 -65 83 -30 311 -100 425 -130 22 -6 58 -15 80 -21 22 -6
76 -18 120 -26 44 -9 96 -20 115 -25 66 -16 156 -29 480 -70 311 -40 772 -39
1095 0 418 52 695 111 1020 219 497 164 931 383 1365 687 398 279 783 651
1075 1039 33 44 62 82 65 85 22 20 208 305 268 411 124 216 207 389 300 619
54 135 109 287 122 335 4 17 14 50 23 75 13 39 27 92 77 290 50 198 93 455
120 720 14 134 8 763 -8 905 -13 110 -30 233 -42 300 -5 28 -17 91 -26 140 -8
50 -20 108 -26 130 -36 145 -45 182 -64 250 -9 33 -20 69 -24 80 -4 11 -13 37
-19 58 l-13 38 224 219 c123 121 231 219 241 220 9 0 17 -1 17 -3z m-7800 -47
c0 -33 -221 -368 -354 -535 -124 -155 -227 -284 -247 -310 -155 -189 -404
-491 -408 -495 -4 -3 -71 -84 -151 -180 -79 -96 -146 -177 -150 -180 -3 -3
-55 -63 -115 -135 -60 -71 -112 -132 -115 -135 -3 -3 -30 -34 -60 -70 -30 -36
-57 -67 -60 -70 -3 -3 -39 -45 -80 -95 -41 -49 -87 -103 -101 -120 -15 -16
-64 -73 -109 -125 -45 -52 -94 -109 -109 -125 -14 -17 -51 -59 -83 -95 -85
-97 -143 -160 -149 -160 -10 0 -26 63 -59 240 -65 345 -77 915 -29 1310 11 88
44 293 60 368 5 23 13 61 18 85 5 23 16 71 26 107 9 36 19 76 22 90 2 14 8 34
13 45 4 11 13 39 20 61 7 23 15 47 19 52 3 6 54 21 111 33 58 12 121 25 140
29 19 4 100 22 180 39 80 17 161 36 180 41 19 5 82 19 140 31 58 11 121 25
140 29 19 4 91 20 160 35 69 15 141 31 160 35 19 4 91 20 160 35 69 15 141 31
160 35 19 4 94 20 165 35 148 31 182 38 280 60 39 9 92 20 119 25 27 6 52 12
54 15 9 9 52 5 52 -5z m732 -167 c50 -69 320 -416 328 -423 4 -3 51 -63 105
-135 92 -120 230 -300 258 -335 7 -8 26 -33 42 -55 16 -22 32 -42 35 -45 4 -3
19 -23 36 -45 16 -22 34 -45 39 -51 6 -6 37 -47 70 -90 33 -43 63 -81 66 -84
5 -5 51 -65 203 -264 38 -50 72 -93 75 -96 4 -3 24 -30 46 -60 22 -30 42 -57
45 -60 3 -3 19 -23 35 -45 17 -22 32 -42 35 -45 4 -3 19 -23 35 -45 17 -22 32
-42 35 -45 4 -3 19 -23 35 -45 17 -22 32 -42 35 -45 3 -3 18 -23 35 -45 16
-22 32 -42 35 -45 3 -3 19 -23 36 -45 16 -22 34 -46 41 -55 7 -8 87 -112 178
-230 91 -118 171 -222 178 -230 7 -8 26 -33 42 -55 16 -22 32 -42 35 -45 7 -6
205 -262 244 -315 17 -22 32 -42 35 -45 4 -3 33 -41 66 -84 33 -43 64 -84 70
-90 5 -6 23 -29 39 -51 17 -22 33 -42 36 -45 3 -3 23 -30 45 -60 22 -30 42
-57 45 -60 3 -3 19 -23 35 -45 17 -22 32 -42 35 -45 4 -3 19 -23 36 -45 16
-22 37 -49 47 -59 20 -23 22 -45 5 -50 -13 -4 -225 -50 -428 -92 -63 -13 -133
-28 -155 -33 -22 -5 -96 -21 -165 -36 -69 -15 -141 -31 -160 -35 -19 -4 -93
-20 -165 -35 -71 -15 -148 -32 -170 -37 -98 -23 -142 -22 -197 5 -72 34 -195
91 -298 137 -453 201 -702 339 -825 456 -68 65 -255 306 -255 328 0 3 -15 29
-33 58 -36 58 -107 202 -107 218 0 6 -4 18 -9 28 -29 55 -71 251 -90 422 -17
149 -19 1734 -3 1885 17 153 38 272 68 385 9 30 20 73 26 95 6 22 12 46 14 53
7 26 35 10 76 -45z m6241 -670 c4 -21 11 -58 17 -83 15 -65 40 -204 51 -282 5
-38 13 -101 19 -140 41 -299 41 -765 0 -1063 -28 -205 -58 -378 -89 -502 -6
-24 -15 -60 -20 -80 -8 -34 -20 -79 -49 -178 -11 -39 -32 -48 -182 -80 -69
-15 -141 -31 -160 -35 -19 -4 -57 -13 -85 -19 -27 -5 -81 -17 -120 -26 -38 -8
-90 -20 -115 -25 -25 -5 -99 -21 -165 -36 -66 -14 -138 -30 -160 -34 -78 -15
-143 -29 -226 -48 -46 -11 -120 -28 -164 -37 -44 -10 -116 -25 -160 -36 -136
-31 -535 -121 -624 -140 -57 -13 -88 -16 -95 -9 -11 11 22 82 81 178 18 29 33
54 33 57 0 6 196 286 284 405 125 169 279 374 305 406 14 17 33 40 41 50 35
45 216 270 225 280 39 44 77 87 120 139 57 68 167 197 175 205 6 6 195 221
280 320 30 35 60 68 65 74 36 40 98 111 145 166 47 55 109 126 145 166 6 6 35
39 65 74 30 35 60 68 65 74 6 6 39 45 75 86 36 41 69 80 75 86 5 6 32 36 59
67 58 68 81 73 89 20z m-281 -2879 c-3 -19 -110 -239 -159 -324 -11 -19 -31
-55 -45 -80 -73 -131 -242 -381 -350 -519 -157 -199 -400 -454 -588 -615 -161
-139 -541 -416 -570 -416 -6 0 -34 13 -63 29 -87 47 -196 105 -322 171 -66 35
-147 77 -180 95 -63 34 -170 90 -370 195 -66 35 -147 77 -180 95 -33 18 -118
63 -190 100 -71 37 -143 75 -160 85 -16 10 -88 48 -160 85 -71 37 -166 87
-210 110 -44 24 -114 59 -155 79 -41 21 -82 41 -90 47 -8 5 -25 13 -37 19 -48
20 -26 37 70 54 50 9 112 21 137 27 65 15 115 26 200 44 125 27 153 33 200 44
68 15 189 41 245 53 28 5 66 14 85 19 19 5 82 19 140 30 58 12 121 25 140 30
32 7 228 51 310 69 151 33 292 63 325 70 34 6 190 40 325 70 19 4 71 15 115
25 138 29 437 95 525 115 38 9 251 55 315 69 402 86 594 128 630 140 47 15 70
10 67 -15z m-6087 -104 c14 -22 25 -42 25 -45 0 -3 12 -24 27 -48 15 -23 39
-64 53 -92 15 -27 66 -120 115 -205 48 -85 99 -175 113 -200 14 -25 28 -49 32
-55 4 -5 20 -32 36 -60 42 -77 65 -117 85 -150 10 -16 26 -46 36 -65 9 -19 32
-58 50 -87 18 -29 33 -55 33 -58 0 -3 12 -24 27 -48 14 -23 41 -70 60 -105 43
-82 57 -106 63 -112 3 -3 10 -14 16 -25 38 -69 66 -118 88 -154 14 -22 26 -43
26 -47 0 -3 8 -18 18 -32 11 -15 38 -63 62 -107 23 -44 46 -84 50 -90 4 -5 17
-26 27 -45 31 -55 67 -120 108 -190 57 -99 69 -120 105 -185 61 -110 69 -123
96 -167 29 -45 74 -133 74 -144 0 -4 -19 -3 -42 0 -24 4 -86 14 -138 22 -176
28 -205 33 -325 59 -168 37 -166 37 -315 78 -89 25 -399 131 -455 156 -11 5
-54 22 -95 38 l-75 29 -6 490 c-3 269 -10 758 -14 1087 -6 445 -5 597 3 597 7
0 23 -18 37 -40z m1035 -589 c313 -158 987 -504 1040 -533 25 -14 126 -67 225
-118 99 -51 207 -107 240 -125 64 -34 211 -112 385 -203 140 -72 309 -161 395
-207 39 -21 156 -82 260 -137 327 -173 338 -179 323 -193 -7 -7 -32 -19 -55
-28 -23 -9 -61 -25 -85 -35 -24 -11 -72 -31 -108 -45 -263 -102 -509 -177
-751 -228 -352 -74 -926 -126 -956 -86 -6 6 -28 46 -50 87 -61 114 -95 174
-103 185 -5 6 -24 39 -43 75 -19 36 -45 83 -57 105 -13 22 -33 58 -45 80 -12
22 -31 56 -42 75 -11 19 -32 58 -47 85 -16 28 -31 55 -36 60 -4 6 -25 44 -47
85 -54 99 -83 153 -93 165 -4 6 -19 30 -32 55 -14 25 -34 61 -45 80 -11 19
-35 62 -53 95 -18 33 -42 76 -53 95 -11 19 -31 55 -45 80 -13 25 -28 50 -32
55 -4 6 -17 26 -27 45 -11 19 -35 62 -53 95 -18 33 -42 75 -52 93 -10 17 -27
49 -39 70 -12 20 -45 78 -74 127 -77 132 -88 155 -73 155 7 0 109 -49 228
-109z"/>
</g>
</svg>
