<?xml version="1.0" standalone="no"?>
<!DOCTYPE svg PUBLIC "-//W3C//DTD SVG 20010904//EN"
 "http://www.w3.org/TR/2001/REC-SVG-20010904/DTD/svg10.dtd">
<svg version="1.0" xmlns="http://www.w3.org/2000/svg"
 width="2000.000000pt" height="1269.000000pt" viewBox="0 0 2000.000000 1269.000000"
 preserveAspectRatio="xMidYMid meet">

<g transform="translate(0.000000,1269.000000) scale(0.100000,-0.100000)"
fill="#000000" stroke="none">
<path d="M7904 12646 c-46 -46 -45 -84 12 -276 200 -684 314 -1464 314 -2155
0 -864 -149 -1566 -475 -2230 -218 -445 -474 -796 -864 -1186 -302 -301 -557
-510 -926 -758 -353 -238 -636 -396 -1125 -626 -1335 -631 -2910 -1162 -4608
-1553 -104 -24 -181 -47 -193 -58 -68 -62 -19 -224 69 -224 16 0 123 16 238
34 1658 274 3299 474 4979 606 557 44 1154 80 1805 110 672 30 958 35 2080 35
1162 0 1379 -4 2165 -40 896 -42 1782 -105 2565 -185 398 -41 492 -51 785 -86
987 -115 2026 -271 2934 -440 137 -25 255 -43 269 -39 14 3 40 21 59 40 29 29
33 40 33 84 0 59 -5 66 -280 361 -976 1047 -2247 2280 -3865 3750 -2139 1944
-3882 3410 -5476 4606 -167 125 -320 236 -339 246 -19 10 -54 18 -78 18 -37 0
-50 -6 -78 -34z m2358 -3951 c790 -677 1647 -1436 2508 -2219 518 -472 590
-538 590 -543 0 -3 -26 -3 -57 1 -96 10 -678 53 -1033 76 -183 11 -674 37
-880 45 -80 3 -197 8 -260 10 -452 19 -900 28 -1658 34 l-874 6 59 75 c590
749 1024 1729 1183 2670 28 168 29 172 40 168 4 -2 176 -147 382 -323z"/>
<path d="M18791 4334 c-132 -35 -243 -129 -308 -260 -35 -73 -38 -84 -41 -183
-3 -89 0 -117 18 -170 68 -203 242 -331 449 -331 252 1 436 161 471 411 35
247 -123 484 -360 538 -63 15 -165 12 -229 -5z m278 -98 c159 -82 248 -254
221 -429 -21 -134 -91 -238 -202 -298 -60 -33 -67 -34 -168 -34 -93 0 -112 3
-162 27 -154 72 -254 271 -219 439 32 152 138 273 281 320 14 5 63 7 110 5 69
-2 95 -7 139 -30z"/>
<path d="M18778 4133 l-38 -4 0 -270 0 -269 40 0 39 0 3 113 3 112 59 0 c51
-1 61 -4 81 -27 13 -16 28 -53 35 -85 21 -108 21 -108 74 -111 42 -3 47 -1 42
15 -3 10 -10 47 -16 83 -15 82 -32 123 -60 143 l-22 16 35 31 c93 81 63 209
-56 245 -47 14 -131 17 -219 8z m200 -90 c39 -29 43 -89 7 -123 -21 -20 -39
-25 -95 -28 l-70 -4 0 84 c0 47 3 88 8 92 14 15 121 0 150 -21z"/>
<path d="M37 2763 c-4 -3 -7 -624 -7 -1380 l0 -1373 340 0 340 0 0 535 0 535
939 0 c578 0 978 4 1040 10 243 25 395 112 474 269 54 108 59 159 55 607 l-3
399 -27 73 c-68 187 -228 294 -481 321 -107 12 -2659 16 -2670 4z m2422 -503
c82 -46 86 -60 86 -335 0 -236 0 -241 -24 -279 -16 -25 -40 -46 -70 -60 -46
-21 -54 -21 -893 -24 l-848 -3 0 366 0 366 853 -3 852 -3 44 -25z"/>
<path d="M4330 1390 l0 -1380 340 0 340 0 -2 1378 -3 1377 -337 2 -338 2 0
-1379z"/>
<path d="M6577 2764 c-4 -4 -7 -625 -7 -1381 l0 -1373 340 0 340 0 0 520 0
520 323 0 322 0 191 -168 c105 -92 371 -326 592 -520 l402 -352 492 0 c278 0
488 4 483 9 -12 10 -774 596 -1109 851 l-229 175 289 6 c318 7 360 14 488 73
118 54 190 133 238 262 21 57 22 76 26 472 4 462 -1 519 -52 627 -44 94 -109
158 -211 207 -160 76 -62 72 -1566 75 -740 2 -1348 0 -1352 -3z m2418 -504
c86 -43 89 -56 93 -326 2 -147 -1 -247 -8 -273 -16 -61 -53 -98 -118 -118 -52
-17 -124 -18 -882 -18 l-825 0 -3 383 -2 383 847 -3 848 -3 50 -25z"/>
<path d="M11200 1390 l0 -1380 280 0 281 0 -3 963 c-2 554 -7 970 -12 981 -24
49 16 -2 67 -86 34 -55 290 -384 629 -808 l573 -715 75 -2 75 -2 297 372 c163
204 405 507 538 672 243 302 327 416 394 535 36 63 37 64 30 25 -3 -22 -8
-466 -11 -987 l-4 -948 321 0 320 0 0 1374 c0 1244 -2 1374 -16 1380 -9 3
-131 6 -273 6 l-257 0 -31 -32 c-35 -38 -744 -908 -1291 -1586 l-34 -43 -25
23 c-24 22 -242 284 -991 1187 -195 234 -360 431 -369 438 -11 8 -93 12 -289
13 l-274 1 0 -1381z"/>
<path d="M17619 2727 c-69 -110 -1120 -1853 -1502 -2489 l-136 -228 343 0 344
0 169 298 168 297 932 3 932 2 87 -147 c47 -82 127 -217 176 -301 l90 -152
385 0 c318 0 384 2 380 13 -3 8 -40 70 -82 138 -109 174 -354 574 -1137 1854
-195 319 -379 619 -409 667 l-54 88 -330 0 -330 0 -26 -43z m623 -1012 c146
-259 282 -500 302 -537 l38 -68 -636 0 c-350 0 -636 3 -636 8 0 4 26 52 58
107 638 1093 581 1000 597 978 6 -10 131 -229 277 -488z"/>
</g>
</svg>
